<svg xmlns="http://www.w3.org/2000/svg"  viewBox="0 0 100 100" width="100px" height="100px"><path fill="#fec933" d="M75.934,20.047c-0.754-4.238-4.175-7.481-8.447-8.008c-11.658-1.438-23.316-1.438-34.974,0	c-4.272,0.527-7.693,3.77-8.447,8.008c-1.421,7.982-1.421,15.964,0,23.946c0.754,4.238,4.175,7.481,8.447,8.008	c1.989,0.245,3.977,0.449,5.966,0.61c-0.345,8.854,0.093,17.731,1.329,26.526c0.489,3.478,2.7,6.478,5.846,8.04l3.22,1.598	c0.709,0.352,1.542,0.352,2.251,0l3.242-1.609c3.176-1.577,5.361-4.627,5.833-8.141l0.01-0.078c0.158-1.181-0.374-2.348-1.37-3.002	l-1.781-1.17c-0.747-0.491-0.747-1.587,0-2.078l2.85-1.872c0.805-0.529,1.316-1.404,1.381-2.364l0.002-0.034	c0.075-1.106-0.452-2.168-1.379-2.776l-2.855-1.876c-0.747-0.491-0.747-1.587,0-2.078l3.16-2.076	c0.877-0.576,1.41-1.558,1.401-2.606c-0.013-1.468-0.048-2.936-0.104-4.404c1.99-0.162,3.981-0.365,5.971-0.611	c4.272-0.527,7.693-3.77,8.447-8.008C77.355,36.011,77.355,28.029,75.934,20.047z"/><circle cx="39.491" cy="31.428" r="5.511" fill="#fff"/><circle cx="39.491" cy="31.428" r="2.259" fill="#4a254b"/><path fill="#4a254b" d="M49.99,41.978c2.578,0,4.702-1.944,4.986-4.446c0.034-0.302-0.186-0.572-0.49-0.572c-1.729,0-7.259,0-8.991,0 c-0.304,0-0.525,0.27-0.491,0.573C45.289,40.034,47.413,41.978,49.99,41.978z"/><circle cx="60.489" cy="31.428" r="5.511" fill="#fff"/><circle cx="60.489" cy="31.428" r="2.259" fill="#4a254b"/><path fill="#4a254b" d="M50,82.835c-0.276,0-0.5-0.224-0.5-0.5v-24.5c0-0.276,0.224-0.5,0.5-0.5s0.5,0.224,0.5,0.5v24.5 C50.5,82.611,50.276,82.835,50,82.835z"/></svg>